<?xml version="1.0" encoding="utf-8"?>
<!-- Generator: Adobe Illustrator 19.1.0, SVG Export Plug-In . SVG Version: 6.00 Build 0)  -->
<!DOCTYPE svg PUBLIC "-//W3C//DTD SVG 1.1//EN" "http://www.w3.org/Graphics/SVG/1.1/DTD/svg11.dtd">
<svg version="1.1" id="Layer_1" xmlns="http://www.w3.org/2000/svg" xmlns:xlink="http://www.w3.org/1999/xlink" x="0px" y="0px"
	 viewBox="60 -59 135 135" style="enable-background:new 60 -59 135 135;" xml:space="preserve">
<style type="text/css">
	.st0{fill:#F5F6F7;}
	.st1{fill:#D3DBE2;}
	.st2{fill:#FFFFFF;}
	.st3{fill:#32383E;}
	.st4{fill:#B1BCC5;}
	.st5{fill:#ECEEEF;}
	.st6{fill:none;stroke:#32383E;stroke-width:2;stroke-miterlimit:10;}
	.st7{fill:#C3CFD8;}
</style>
<path class="st0" d="M190.8,73.7H63.3c-1.1,0-2-0.9-2-2v-127c0-1.1,0.9-2,2-2h127.5c1.1,0,2,0.9,2,2v127
	C192.8,72.8,191.9,73.7,190.8,73.7z"/>
<rect x="81.5" y="-46.7" class="st1" width="91.7" height="69.3"/>
<rect x="81.5" y="21.4" class="st2" width="91.7" height="41.7"/>
<path class="st3" d="M159.7,53.5H94.9c-1.5,0-2.8-1.5-2.8-3.5V33.3c0-1.9,1.2-3.5,2.8-3.5h64.8c1.5,0,2.8,1.5,2.8,3.5V50
	C162.5,51.9,161.2,53.5,159.7,53.5z"/>
<path class="st4" d="M161.8-4.5L152.3,2l-39.1-3L94.5-2.4V-23c0-1.3,1.5-0.8,2.3,0.2c2.4,3.3,6.3,5.4,10.6,5.4
	c5.5,0,10.2-4.4,12.2-9.3l19.1,10.5l19.8,8.1c1.4,0.5,2.5,1.6,3.1,2.9L161.8-4.5z"/>
<path class="st5" d="M113.2-2.3c0,0.4,0,0.9,0,1.3L94.5-2.4v-15.8c1-0.2,2-0.3,3.1-0.3C106.2-18.6,113.2-11.3,113.2-2.3z"/>
<path class="st0" d="M124.9-23.8c-3.2,6.6-9.8,11.1-17.4,11.1c-5,0-10-1.9-13-5.2V-23c0-1.3,1.5-1.8,2.3-0.8
	c2.4,3.3,6.3,5.4,10.6,5.4c5.5,0,10.2-3.4,12.2-8.3L124.9-23.8z"/>
<path class="st5" d="M115.6-26.6L115.6-26.6c-1,1.1-1.6,2.5-1.6,4v2.5l7.9,5l13,2.8l4-3.8l-16-11C120.6-28.9,117.5-28.7,115.6-26.6z
	"/>
<line class="st6" x1="134.8" y1="-18.9" x2="130.1" y2="-14.4"/>
<line class="st6" x1="129.9" y1="-22.3" x2="123.9" y2="-16.3"/>
<path class="st3" d="M162.3-4.5c-0.1,0.3-0.3,0.5-0.5,0.8c-2.7,4.1-9.7,7.5-18.7,8.2c-18.6,1.3-42.7,0.1-50.4-0.4
	c-0.6,0-1.1-0.8-0.9-1.6l1-4.8c0.1-0.6,0.5-0.9,1-0.9l32.3,2.9c12.9,0.9,26.9,2.1,35-3.8c0.4-0.2,0.7-0.5,1-0.8
	C162.3-5,162.4-4.7,162.3-4.5z"/>
<path class="st7" d="M124.6,2.9L97.1,2.1c-1,0-1.8-1-1.6-2.1l0,0c0.2-0.8,0.9-1.4,1.8-1.3l27.4,2.6c0.4,0,0.7,0.4,0.7,0.8l0,0
	C125.4,2.6,125.1,3,124.6,2.9z"/>
<g>
	<path class="st4" d="M104.9,38.1h3.1c0.6,0,1,0.1,1.3,0.4c0.3,0.3,0.4,0.6,0.4,1.2c0,0.3-0.1,0.6-0.3,0.9c-0.1,0.3-0.4,0.4-0.7,0.6
		l0,0c0.4,0.1,0.7,0.3,0.9,0.6c0.1,0.3,0.3,0.6,0.3,1c0,0.3,0,0.4-0.1,0.7c-0.1,0.1-0.3,0.4-0.4,0.6c-0.1,0.1-0.4,0.3-0.7,0.4
		c-0.3,0.1-0.6,0.1-1,0.1h-3v-6.7H104.9z M106,40.8h1.8c0.3,0,0.4-0.1,0.7-0.3c0.1-0.1,0.3-0.3,0.3-0.6c0-0.3-0.1-0.6-0.3-0.7
		c-0.1-0.1-0.4-0.1-0.7-0.1H106V40.8z M106,43.6h1.9c0.3,0,0.6-0.1,0.7-0.3c0.1-0.1,0.3-0.4,0.3-0.7s-0.1-0.6-0.3-0.7
		s-0.4-0.3-0.7-0.3H106V43.6z"/>
	<path class="st4" d="M111.8,38.1h1.2v3.7c0,0.1,0,0.4,0,0.6s0.1,0.4,0.1,0.6c0.1,0.1,0.3,0.3,0.4,0.4c0.1,0.1,0.4,0.1,0.9,0.1
		s0.6,0,0.9-0.1c0.1-0.1,0.3-0.3,0.4-0.4c0.1-0.1,0.1-0.4,0.1-0.6s0-0.4,0-0.6v-3.7h1.2v4c0,0.4,0,0.7-0.1,1
		c-0.1,0.3-0.3,0.6-0.6,0.7s-0.4,0.3-0.9,0.4c-0.3,0.1-0.7,0.1-1,0.1c-0.3,0-0.7,0-1-0.1c-0.3-0.1-0.6-0.3-0.9-0.4
		c-0.3-0.1-0.4-0.4-0.6-0.7s-0.1-0.6-0.1-1C111.8,42.1,111.8,38.1,111.8,38.1z"/>
	<path class="st4" d="M120.7,42l-2.4-3.9h1.3l1.6,2.8l1.6-2.8h1.2l-2.4,3.9v2.5h-1V42z"/>
	<path class="st4" d="M128.7,38.1h1.2l3,4.8l0,0v-4.8h1v6.4h-1.3l-3-4.6l0,0v4.6h-1v-6.4H128.7z"/>
	<path class="st4" d="M138.5,38c0.4,0,0.9,0.1,1.3,0.3s0.7,0.4,0.9,0.7s0.4,0.6,0.6,1c0.1,0.4,0.1,0.9,0.1,1.3s0,0.9-0.1,1.3
		c-0.1,0.4-0.3,0.7-0.6,1s-0.6,0.6-0.9,0.7c-0.4,0.1-0.7,0.3-1.3,0.3c-0.4,0-0.9-0.1-1.3-0.3s-0.7-0.4-0.9-0.7
		c-0.3-0.3-0.4-0.6-0.6-1c-0.1-0.4-0.1-0.9-0.1-1.3s0-0.9,0.1-1.3s0.3-0.7,0.6-1c0.3-0.3,0.6-0.6,0.9-0.7S138,38,138.5,38z
		 M138.5,38.9c-0.3,0-0.6,0-0.9,0.1c-0.3,0.1-0.4,0.3-0.6,0.6c-0.1,0.3-0.3,0.4-0.3,0.7s-0.1,0.6-0.1,0.9s0,0.6,0.1,0.9
		c0,0.3,0.1,0.6,0.3,0.7c0.1,0.3,0.3,0.4,0.6,0.6c0.3,0.1,0.6,0.1,0.9,0.1c0.3,0,0.6,0,0.9-0.1c0.3-0.1,0.4-0.3,0.6-0.6
		c0.1-0.3,0.3-0.4,0.3-0.7c0-0.3,0.1-0.6,0.1-0.9s0-0.6-0.1-0.9c0-0.3-0.1-0.6-0.3-0.7c-0.1-0.3-0.3-0.4-0.6-0.6
		C139.1,38.9,138.9,38.9,138.5,38.9z"/>
	<path class="st4" d="M142.7,38.1h1.2L145,43l0,0l1.3-4.9h1l1.2,4.9l0,0l1.2-4.9h1.2l-1.8,6.4H148l-1.3-4.9l0,0l-1.3,4.9h-0.9
		L142.7,38.1z"/>
</g>
</svg>
