<?xml version="1.0" encoding="utf-8"?>
<!-- Generator: Adobe Illustrator 19.1.0, SVG Export Plug-In . SVG Version: 6.00 Build 0)  -->
<!DOCTYPE svg PUBLIC "-//W3C//DTD SVG 1.1//EN" "http://www.w3.org/Graphics/SVG/1.1/DTD/svg11.dtd">
<svg version="1.1" id="Layer_1" xmlns="http://www.w3.org/2000/svg" xmlns:xlink="http://www.w3.org/1999/xlink" x="0px" y="0px"
	 viewBox="0 0 135 135" style="enable-background:new 0 0 135 135;" xml:space="preserve">
<style type="text/css">
	.st0{fill:#F5F6F7;}
	.st1{fill:#32383E;}
	.st2{fill:#B1BCC5;}
</style>
<path class="st0" d="M131.2,133H3.8c-1.1,0-2-0.9-2-2V4c0-1.1,0.9-2,2-2h127.5c1.1,0,2,0.9,2,2v127C133.2,132.1,132.4,133,131.2,133
	z"/>
<g>
	<path class="st1" d="M112.3,85.5H22.7c-1.5,0-2.8-1.2-2.8-2.8V52.2c0-1.5,1.2-2.8,2.8-2.8h89.7c1.5,0,2.8,1.2,2.8,2.8v30.5
		C115.1,84.3,113.9,85.5,112.3,85.5z"/>
	<g>
		<path class="st2" d="M36.7,63.2h4.2c0.8,0,1.4,0.2,1.9,0.5c0.5,0.4,0.7,0.9,0.7,1.6c0,0.4-0.1,0.8-0.3,1.1
			c-0.2,0.3-0.5,0.6-0.9,0.7v0c0.5,0.1,0.9,0.4,1.2,0.8c0.3,0.4,0.4,0.9,0.4,1.5c0,0.3-0.1,0.7-0.2,1c-0.1,0.3-0.3,0.5-0.6,0.8
			s-0.6,0.4-1,0.5c-0.4,0.1-0.9,0.2-1.4,0.2h-4V63.2z M38.3,66.8h2.5c0.4,0,0.7-0.1,0.9-0.3c0.2-0.2,0.4-0.5,0.4-0.9
			c0-0.4-0.1-0.7-0.3-0.9c-0.2-0.2-0.5-0.3-0.9-0.3h-2.5V66.8z M38.3,70.6h2.7c0.5,0,0.8-0.1,1.1-0.4c0.3-0.2,0.4-0.6,0.4-1
			c0-0.4-0.1-0.8-0.4-1c-0.3-0.2-0.6-0.3-1.1-0.3h-2.7V70.6z"/>
		<path class="st2" d="M46.1,63.2h1.5v5c0,0.3,0,0.6,0,0.9c0,0.3,0.1,0.6,0.2,0.8c0.1,0.2,0.3,0.4,0.6,0.6c0.3,0.2,0.7,0.2,1.1,0.2
			s0.9-0.1,1.1-0.2c0.3-0.2,0.5-0.3,0.6-0.6c0.1-0.2,0.2-0.5,0.2-0.8c0-0.3,0-0.6,0-0.9v-5h1.5v5.5c0,0.6-0.1,1-0.3,1.5
			c-0.2,0.4-0.4,0.8-0.7,1c-0.3,0.3-0.7,0.5-1.1,0.6C50.7,72,50.2,72,49.7,72c-0.5,0-1-0.1-1.5-0.2c-0.4-0.1-0.8-0.3-1.1-0.6
			c-0.3-0.3-0.6-0.6-0.7-1c-0.2-0.4-0.3-0.9-0.3-1.5V63.2z"/>
		<path class="st2" d="M58.2,68.4L55,63.2h1.8l2.3,3.9l2.3-3.9H63l-3.2,5.3v3.4h-1.5V68.4z"/>
		<path class="st2" d="M69.1,63.2h1.6l4,6.4h0v-6.4h1.4v8.7h-1.6l-3.9-6.4h0v6.4h-1.4V63.2z"/>
		<path class="st2" d="M82.5,63c0.6,0,1.2,0.1,1.7,0.4s0.9,0.6,1.3,1c0.4,0.4,0.6,0.9,0.8,1.4c0.2,0.6,0.3,1.1,0.3,1.7
			c0,0.6-0.1,1.2-0.3,1.8c-0.2,0.5-0.5,1-0.8,1.4c-0.4,0.4-0.8,0.7-1.3,1c-0.5,0.2-1.1,0.4-1.7,0.4c-0.6,0-1.2-0.1-1.7-0.4
			c-0.5-0.2-0.9-0.6-1.3-1c-0.4-0.4-0.6-0.9-0.8-1.4c-0.2-0.6-0.3-1.1-0.3-1.8c0-0.6,0.1-1.2,0.3-1.7c0.2-0.5,0.5-1,0.8-1.4
			c0.4-0.4,0.8-0.7,1.3-1C81.3,63.1,81.9,63,82.5,63z M82.5,64.2c-0.5,0-0.9,0.1-1.2,0.3c-0.3,0.2-0.6,0.4-0.8,0.7
			c-0.2,0.3-0.4,0.7-0.5,1.1c-0.1,0.4-0.2,0.8-0.2,1.2s0.1,0.8,0.2,1.2c0.1,0.4,0.3,0.7,0.5,1.1c0.2,0.3,0.5,0.6,0.8,0.7
			c0.3,0.2,0.7,0.3,1.2,0.3c0.5,0,0.9-0.1,1.2-0.3s0.6-0.4,0.8-0.7c0.2-0.3,0.4-0.7,0.5-1.1c0.1-0.4,0.2-0.8,0.2-1.2
			s-0.1-0.8-0.2-1.2c-0.1-0.4-0.3-0.7-0.5-1.1c-0.2-0.3-0.5-0.6-0.8-0.7S83,64.2,82.5,64.2z"/>
		<path class="st2" d="M88.2,63.2h1.5l1.6,6.6h0l1.7-6.6h1.6l1.7,6.6h0l1.6-6.6h1.5l-2.4,8.7h-1.5l-1.7-6.6h0L92,71.8h-1.6
			L88.2,63.2z"/>
	</g>
</g>
</svg>
